<?xml version="1.0" encoding="UTF-8"?>
<svg id="Layer_1" xmlns="http://www.w3.org/2000/svg" version="1.1" viewBox="0 0 955.3 955.3">
  <!-- Generator: Adobe Illustrator 29.5.1, SVG Export Plug-In . SVG Version: 2.1.0 Build 141)  -->
  <defs>
    <style>
      .st0 {
        fill: #fff;
      }
    </style>
  </defs>
  <rect x="77.7" y="77.7" width="800" height="800" rx="130" ry="130"/>
  <g>
    <path class="st0" d="M507,366.1c-5.5,0-10-4.5-10-10v-85.9c0-5.5-4.5-10-10-10h-72.2c-5.5,0-10,4.5-10,10v311c0,3.2,2.6,5.8,5.8,5.8h35.9c5.5,0,10,4.5,10,10v88.3c0,5.5,4.5,10,10,10h72.2c5.5,0,10-4.5,10-10v-313.4c0-3.2-2.6-5.8-5.8-5.8h-35.9Z"/>
    <path class="st0" d="M522.8,260.1c-5.5,0-10,4.5-10,10v74.1c0,3.2,2.6,5.8,5.8,5.8h37.3c5.5,0,10,4.5,10,10v325.2c0,5.5,4.5,10,10,10h72.2c5.5,0,10-4.5,10-10v-415.1c0-5.5-4.5-10-10-10h-125.3Z"/>
    <path class="st0" d="M399.5,603.1c-5.5,0-10-4.5-10-10v-323c0-5.5-4.5-10-10-10h-72.2c-5.5,0-10,4.5-10,10v415.1c0,5.5,4.5,10,10,10h121.7c5.5,0,10-4.5,10-10v-76.3c0-3.2-2.6-5.8-5.8-5.8h-33.7Z"/>
  </g>
</svg>