<?xml version="1.0" encoding="UTF-8"?>
<svg id="Layer_2" xmlns="http://www.w3.org/2000/svg" version="1.1" viewBox="0 0 1025 1025">
  <!-- Generator: Adobe Illustrator 29.6.1, SVG Export Plug-In . SVG Version: 2.1.1 Build 9)  -->
  <defs>
    <style>
      .st0 {
        fill: #fff;
      }
    </style>
  </defs>
  <path class="st0" d="M329.4,925.5h366.2c139.5,0,229.9-108.9,229.9-229.9v-366.2c0-121-90.3-229.9-229.9-229.9h-366.2c-139.5,0-229.9,108.9-229.9,229.9v366.2c0,121,90.3,229.9,229.9,229.9h0Z"/>
  <g>
    <path d="M541.8,400.9c-5.5,0-10-4.5-10-10v-85.9c0-5.5-4.5-10-10-10h-72.2c-5.5,0-10,4.5-10,10v311c0,3.2,2.6,5.8,5.8,5.8h35.9c5.5,0,10,4.5,10,10v88.3c0,5.5,4.5,10,10,10h72.2c5.5,0,10-4.5,10-10v-313.4c0-3.2-2.6-5.8-5.8-5.8h-35.9,0Z"/>
    <path d="M557.6,294.9c-5.5,0-10,4.5-10,10v74.1c0,3.2,2.6,5.8,5.8,5.8h37.3c5.5,0,10,4.5,10,10v325.2c0,5.5,4.5,10,10,10h72.2c5.5,0,10-4.5,10-10v-415.1c0-5.5-4.5-10-10-10h-125.3Z"/>
    <path d="M434.3,637.9c-5.5,0-10-4.5-10-10v-323c0-5.5-4.5-10-10-10h-72.2c-5.5,0-10,4.5-10,10v415.1c0,5.5,4.5,10,10,10h121.7c5.5,0,10-4.5,10-10v-76.3c0-3.2-2.6-5.8-5.8-5.8h-33.7Z"/>
  </g>
</svg>