<?xml version="1.0" encoding="UTF-8"?>
<svg id="Layer_2" xmlns="http://www.w3.org/2000/svg" version="1.1" viewBox="0 0 800 800">
  <!-- Generator: Adobe Illustrator 29.5.0, SVG Export Plug-In . SVG Version: 2.1.0 Build 137)  -->
  <defs>
    <style>
      .st0 {
        fill: #fff;
      }
    </style>
  </defs>
  <g>
    <path d="M429.3,288.4c-5.5,0-10-4.5-10-10v-85.9c0-5.5-4.5-10-10-10h-72.2c-5.5,0-10,4.5-10,10v311c0,3.2,2.6,5.8,5.8,5.8h35.9c5.5,0,10,4.5,10,10v88.3c0,5.5,4.5,10,10,10h72.2c5.5,0,10-4.5,10-10v-313.4c0-3.2-2.6-5.8-5.8-5.8h-35.9Z"/>
    <path d="M445.1,182.4c-5.5,0-10,4.5-10,10v74.1c0,3.2,2.6,5.8,5.8,5.8h37.3c5.5,0,10,4.5,10,10v325.2c0,5.5,4.5,10,10,10h72.2c5.5,0,10-4.5,10-10V192.4c0-5.5-4.5-10-10-10h-125.3Z"/>
    <path d="M321.8,525.4c-5.5,0-10-4.5-10-10V192.4c0-5.5-4.5-10-10-10h-72.2c-5.5,0-10,4.5-10,10v415.1c0,5.5,4.5,10,10,10h121.7c5.5,0,10-4.5,10-10v-76.3c0-3.2-2.6-5.8-5.8-5.8h-33.7Z"/>
  </g>
  <rect class="st0" y="-1006" width="800" height="800" rx="50" ry="50"/>
  <g>
    <path d="M429.3-717.6c-5.5,0-10-4.5-10-10v-85.9c0-5.5-4.5-10-10-10h-72.2c-5.5,0-10,4.5-10,10v311c0,3.2,2.6,5.8,5.8,5.8h35.9c5.5,0,10,4.5,10,10v88.3c0,5.5,4.5,10,10,10h72.2c5.5,0,10-4.5,10-10v-313.4c0-3.2-2.6-5.8-5.8-5.8h-35.9Z"/>
    <path d="M445.1-823.5c-5.5,0-10,4.5-10,10v74.1c0,3.2,2.6,5.8,5.8,5.8h37.3c5.5,0,10,4.5,10,10v325.2c0,5.5,4.5,10,10,10h72.2c5.5,0,10-4.5,10-10v-415.1c0-5.5-4.5-10-10-10h-125.3Z"/>
    <path d="M321.8-480.6c-5.5,0-10-4.5-10-10v-323c0-5.5-4.5-10-10-10h-72.2c-5.5,0-10,4.5-10,10v415.1c0,5.5,4.5,10,10,10h121.7c5.5,0,10-4.5,10-10v-76.3c0-3.2-2.6-5.8-5.8-5.8h-33.7Z"/>
  </g>
  <g>
    <path class="st0" d="M-575.4,288.4c-5.5,0-10-4.5-10-10v-85.9c0-5.5-4.5-10-10-10h-72.2c-5.5,0-10,4.5-10,10v311c0,3.2,2.6,5.8,5.8,5.8h35.9c5.5,0,10,4.5,10,10v88.3c0,5.5,4.5,10,10,10h72.2c5.5,0,10-4.5,10-10v-313.4c0-3.2-2.6-5.8-5.8-5.8h-35.9Z"/>
    <path class="st0" d="M-559.6,182.4c-5.5,0-10,4.5-10,10v74.1c0,3.2,2.6,5.8,5.8,5.8h37.3c5.5,0,10,4.5,10,10v325.2c0,5.5,4.5,10,10,10h72.2c5.5,0,10-4.5,10-10V192.4c0-5.5-4.5-10-10-10h-125.3Z"/>
    <path class="st0" d="M-682.9,525.4c-5.5,0-10-4.5-10-10V192.4c0-5.5-4.5-10-10-10h-72.2c-5.5,0-10,4.5-10,10v415.1c0,5.5,4.5,10,10,10h121.7c5.5,0,10-4.5,10-10v-76.3c0-3.2-2.6-5.8-5.8-5.8h-33.7Z"/>
  </g>
  <rect x="-1004.7" y="-1006" width="800" height="800" rx="50" ry="50"/>
  <g>
    <path class="st0" d="M-575.4-717.6c-5.5,0-10-4.5-10-10v-85.9c0-5.5-4.5-10-10-10h-72.2c-5.5,0-10,4.5-10,10v311c0,3.2,2.6,5.8,5.8,5.8h35.9c5.5,0,10,4.5,10,10v88.3c0,5.5,4.5,10,10,10h72.2c5.5,0,10-4.5,10-10v-313.4c0-3.2-2.6-5.8-5.8-5.8h-35.9Z"/>
    <path class="st0" d="M-559.6-823.5c-5.5,0-10,4.5-10,10v74.1c0,3.2,2.6,5.8,5.8,5.8h37.3c5.5,0,10,4.5,10,10v325.2c0,5.5,4.5,10,10,10h72.2c5.5,0,10-4.5,10-10v-415.1c0-5.5-4.5-10-10-10h-125.3Z"/>
    <path class="st0" d="M-682.9-480.6c-5.5,0-10-4.5-10-10v-323c0-5.5-4.5-10-10-10h-72.2c-5.5,0-10,4.5-10,10v415.1c0,5.5,4.5,10,10,10h121.7c5.5,0,10-4.5,10-10v-76.3c0-3.2-2.6-5.8-5.8-5.8h-33.7Z"/>
  </g>
</svg>