<?xml version="1.0" encoding="UTF-8"?>
<svg id="Layer_2" xmlns="http://www.w3.org/2000/svg" version="1.1" viewBox="0 0 800 800">
  <!-- Generator: Adobe Illustrator 29.5.0, SVG Export Plug-In . SVG Version: 2.1.0 Build 137)  -->
  <defs>
    <style>
      .st0, .st1, .st2, .st3, .st4, .st5, .st6 {
        fill: #fff;
      }

      .st0, .st7 {
        opacity: 0;
      }

      .st1, .st8 {
        opacity: .2;
      }

      .st2, .st9 {
        opacity: 0;
      }

      .st3, .st10 {
        opacity: .1;
      }

      .st4, .st11 {
        opacity: .2;
      }

      .st5, .st12 {
        opacity: .3;
      }
    </style>
  </defs>
  <g>
    <path d="M429.3,288.4c-5.5,0-10-4.5-10-10v-85.9c0-5.5-4.5-10-10-10h-72.2c-5.5,0-10,4.5-10,10v311c0,3.2,2.6,5.8,5.8,5.8h35.9c5.5,0,10,4.5,10,10v88.3c0,5.5,4.5,10,10,10h72.2c5.5,0,10-4.5,10-10v-313.4c0-3.2-2.6-5.8-5.8-5.8h-35.9,0Z"/>
    <path d="M445.1,182.4c-5.5,0-10,4.5-10,10v74.1c0,3.2,2.6,5.8,5.8,5.8h37.3c5.5,0,10,4.5,10,10v325.2c0,5.5,4.5,10,10,10h72.2c5.5,0,10-4.5,10-10V192.4c0-5.5-4.5-10-10-10h-125.3,0Z"/>
    <path d="M321.8,525.4c-5.5,0-10-4.5-10-10V192.4c0-5.5-4.5-10-10-10h-72.2c-5.5,0-10,4.5-10,10v415.1c0,5.5,4.5,10,10,10h121.7c5.5,0,10-4.5,10-10v-76.3c0-3.2-2.6-5.8-5.8-5.8h-33.7Z"/>
  </g>
  <rect class="st6" y="-1006" width="800" height="800" rx="50" ry="50"/>
  <g>
    <path d="M429.3-717.6c-5.5,0-10-4.5-10-10v-85.9c0-5.5-4.5-10-10-10h-72.2c-5.5,0-10,4.5-10,10v311c0,3.2,2.6,5.8,5.8,5.8h35.9c5.5,0,10,4.5,10,10v88.3c0,5.5,4.5,10,10,10h72.2c5.5,0,10-4.5,10-10v-313.4c0-3.2-2.6-5.8-5.8-5.8h-35.9,0Z"/>
    <path d="M445.1-823.5c-5.5,0-10,4.5-10,10v74.1c0,3.2,2.6,5.8,5.8,5.8h37.3c5.5,0,10,4.5,10,10v325.2c0,5.5,4.5,10,10,10h72.2c5.5,0,10-4.5,10-10v-415.1c0-5.5-4.5-10-10-10h-125.3,0Z"/>
    <path d="M321.8-480.6c-5.5,0-10-4.5-10-10v-323c0-5.5-4.5-10-10-10h-72.2c-5.5,0-10,4.5-10,10v415.1c0,5.5,4.5,10,10,10h121.7c5.5,0,10-4.5,10-10v-76.3c0-3.2-2.6-5.8-5.8-5.8h-33.7Z"/>
  </g>
  <g>
    <path class="st6" d="M-575.4,288.4c-5.5,0-10-4.5-10-10v-85.9c0-5.5-4.5-10-10-10h-72.2c-5.5,0-10,4.5-10,10v311c0,3.2,2.6,5.8,5.8,5.8h35.9c5.5,0,10,4.5,10,10v88.3c0,5.5,4.5,10,10,10h72.2c5.5,0,10-4.5,10-10v-313.4c0-3.2-2.6-5.8-5.8-5.8h-35.9Z"/>
    <path class="st6" d="M-559.6,182.4c-5.5,0-10,4.5-10,10v74.1c0,3.2,2.6,5.8,5.8,5.8h37.3c5.5,0,10,4.5,10,10v325.2c0,5.5,4.5,10,10,10h72.2c5.5,0,10-4.5,10-10V192.4c0-5.5-4.5-10-10-10h-125.3Z"/>
    <path class="st6" d="M-682.9,525.4c-5.5,0-10-4.5-10-10V192.4c0-5.5-4.5-10-10-10h-72.2c-5.5,0-10,4.5-10,10v415.1c0,5.5,4.5,10,10,10h121.7c5.5,0,10-4.5,10-10v-76.3c0-3.2-2.6-5.8-5.8-5.8h-33.7Z"/>
  </g>
  <g>
    <rect x="-1004.7" y="-1006" width="800" height="800" rx="50" ry="50"/>
    <g>
      <path class="st6" d="M-575.4-717.6c-5.5,0-10-4.5-10-10v-85.9c0-5.5-4.5-10-10-10h-72.2c-5.5,0-10,4.5-10,10v311c0,3.2,2.6,5.8,5.8,5.8h35.9c5.5,0,10,4.5,10,10v88.3c0,5.5,4.5,10,10,10h72.2c5.5,0,10-4.5,10-10v-313.4c0-3.2-2.6-5.8-5.8-5.8h-35.9Z"/>
      <path class="st6" d="M-559.6-823.5c-5.5,0-10,4.5-10,10v74.1c0,3.2,2.6,5.8,5.8,5.8h37.3c5.5,0,10,4.5,10,10v325.2c0,5.5,4.5,10,10,10h72.2c5.5,0,10-4.5,10-10v-415.1c0-5.5-4.5-10-10-10h-125.3Z"/>
      <path class="st6" d="M-682.9-480.6c-5.5,0-10-4.5-10-10v-323c0-5.5-4.5-10-10-10h-72.2c-5.5,0-10,4.5-10,10v415.1c0,5.5,4.5,10,10,10h121.7c5.5,0,10-4.5,10-10v-76.3c0-3.2-2.6-5.8-5.8-5.8h-33.7Z"/>
    </g>
  </g>
  <g>
    <rect x="894.9" y="-1005" width="3431.3" height="800" rx="50" ry="50"/>
    <g>
      <path class="st6" d="M2641.5-717.6c-5.5,0-10-4.5-10-10v-85.9c0-5.5-4.5-10-10-10h-72.2c-5.5,0-10,4.5-10,10v311c0,3.2,2.6,5.8,5.8,5.8h35.9c5.5,0,10,4.5,10,10v88.3c0,5.5,4.5,10,10,10h72.2c5.5,0,10-4.5,10-10v-313.4c0-3.2-2.6-5.8-5.8-5.8h-35.9Z"/>
      <path class="st6" d="M2657.3-823.5c-5.5,0-10,4.5-10,10v74.1c0,3.2,2.6,5.8,5.8,5.8h37.3c5.5,0,10,4.5,10,10v325.2c0,5.5,4.5,10,10,10h72.2c5.5,0,10-4.5,10-10v-415.1c0-5.5-4.5-10-10-10h-125.3Z"/>
      <path class="st6" d="M2534-480.6c-5.5,0-10-4.5-10-10v-323c0-5.5-4.5-10-10-10h-72.2c-5.5,0-10,4.5-10,10v415.1c0,5.5,4.5,10,10,10h121.7c5.5,0,10-4.5,10-10v-76.3c0-3.2-2.6-5.8-5.8-5.8h-33.7Z"/>
    </g>
    <g>
      <rect class="st5" x="2810.4" y="-823.5" width="95.3" height="95.3" rx="-316.4" ry="-316.4"/>
      <rect class="st5" x="2810.4" y="-710.3" width="95.3" height="95.3" rx="-259.8" ry="-259.8"/>
      <rect class="st5" x="2810.4" y="-483.8" width="95.3" height="95.3" rx="-146.6" ry="-146.6"/>
      <rect class="st5" x="2810.4" y="-597" width="95.3" height="95.3" rx="-203.2" ry="-203.2"/>
      <rect class="st5" x="2924.2" y="-823.5" width="95.3" height="95.3" rx="-316.4" ry="-316.4"/>
      <rect class="st5" x="2924.2" y="-710.3" width="95.3" height="95.3" rx="-259.8" ry="-259.8"/>
      <rect class="st5" x="2924.2" y="-483.8" width="95.3" height="95.3" rx="-146.6" ry="-146.6"/>
      <rect class="st5" x="2924.2" y="-597" width="95.3" height="95.3" rx="-203.2" ry="-203.2"/>
      <rect class="st1" x="3038" y="-823.5" width="95.3" height="95.3" rx="-316.4" ry="-316.4"/>
      <rect class="st1" x="3038" y="-710.3" width="95.3" height="95.3" rx="-259.8" ry="-259.8"/>
      <rect class="st1" x="3038" y="-483.8" width="95.3" height="95.3" rx="-146.6" ry="-146.6"/>
      <rect class="st1" x="3038" y="-597" width="95.3" height="95.3" rx="-203.2" ry="-203.2"/>
      <rect class="st1" x="3151.8" y="-823.5" width="95.3" height="95.3" rx="-316.4" ry="-316.4"/>
      <rect class="st1" x="3151.8" y="-710.3" width="95.3" height="95.3" rx="-259.8" ry="-259.8"/>
      <rect class="st1" x="3151.8" y="-483.8" width="95.3" height="95.3" rx="-146.6" ry="-146.6"/>
      <rect class="st1" x="3151.8" y="-597" width="95.3" height="95.3" rx="-203.2" ry="-203.2"/>
      <rect class="st4" x="3265.6" y="-823.5" width="95.3" height="95.3" rx="-316.4" ry="-316.4"/>
      <rect class="st4" x="3265.6" y="-710.3" width="95.3" height="95.3" rx="-259.8" ry="-259.8"/>
      <rect class="st4" x="3265.6" y="-483.8" width="95.3" height="95.3" rx="-146.6" ry="-146.6"/>
      <rect class="st4" x="3265.6" y="-597" width="95.3" height="95.3" rx="-203.2" ry="-203.2"/>
      <rect class="st4" x="3379.4" y="-823.5" width="95.3" height="95.3" rx="-316.4" ry="-316.4"/>
      <rect class="st4" x="3379.4" y="-710.3" width="95.3" height="95.3" rx="-259.8" ry="-259.8"/>
      <rect class="st4" x="3379.4" y="-483.8" width="95.3" height="95.3" rx="-146.6" ry="-146.6"/>
      <rect class="st4" x="3379.4" y="-597" width="95.3" height="95.3" rx="-203.2" ry="-203.2"/>
      <rect class="st3" x="3493.2" y="-823.5" width="95.3" height="95.3" rx="-316.4" ry="-316.4"/>
      <rect class="st3" x="3493.2" y="-710.3" width="95.3" height="95.3" rx="-259.8" ry="-259.8"/>
      <rect class="st3" x="3493.2" y="-483.8" width="95.3" height="95.3" rx="-146.6" ry="-146.6"/>
      <rect class="st3" x="3493.2" y="-597" width="95.3" height="95.3" rx="-203.2" ry="-203.2"/>
      <rect class="st3" x="3607" y="-823.5" width="95.3" height="95.3" rx="-316.4" ry="-316.4"/>
      <rect class="st3" x="3607" y="-710.3" width="95.3" height="95.3" rx="-259.8" ry="-259.8"/>
      <rect class="st3" x="3607" y="-483.8" width="95.3" height="95.3" rx="-146.6" ry="-146.6"/>
      <rect class="st3" x="3607" y="-597" width="95.3" height="95.3" rx="-203.2" ry="-203.2"/>
      <rect class="st2" x="3720.7" y="-823.5" width="95.3" height="95.3" rx="-316.4" ry="-316.4"/>
      <rect class="st2" x="3720.7" y="-710.3" width="95.3" height="95.3" rx="-259.8" ry="-259.8"/>
      <rect class="st2" x="3720.7" y="-483.8" width="95.3" height="95.3" rx="-146.6" ry="-146.6"/>
      <rect class="st2" x="3720.7" y="-597" width="95.3" height="95.3" rx="-203.2" ry="-203.2"/>
      <rect class="st2" x="3834.5" y="-823.5" width="95.3" height="95.3" rx="-316.4" ry="-316.4"/>
      <rect class="st2" x="3834.5" y="-710.3" width="95.3" height="95.3" rx="-259.8" ry="-259.8"/>
      <rect class="st2" x="3834.5" y="-483.8" width="95.3" height="95.3" rx="-146.6" ry="-146.6"/>
      <rect class="st2" x="3834.5" y="-597" width="95.3" height="95.3" rx="-203.2" ry="-203.2"/>
      <rect class="st0" x="3948.3" y="-822.5" width="95.3" height="95.3" rx="-315.9" ry="-315.9"/>
      <rect class="st0" x="3948.3" y="-709.3" width="95.3" height="95.3" rx="-259.3" ry="-259.3"/>
      <rect class="st0" x="3948.3" y="-482.8" width="95.3" height="95.3" rx="-146.1" ry="-146.1"/>
      <rect class="st0" x="3948.3" y="-596" width="95.3" height="95.3" rx="-202.7" ry="-202.7"/>
      <rect class="st0" x="4062.1" y="-822.5" width="95.3" height="95.3" rx="-315.9" ry="-315.9"/>
      <rect class="st0" x="4062.1" y="-709.3" width="95.3" height="95.3" rx="-259.3" ry="-259.3"/>
      <rect class="st0" x="4062.1" y="-482.8" width="95.3" height="95.3" rx="-146.1" ry="-146.1"/>
      <rect class="st0" x="4062.1" y="-596" width="95.3" height="95.3" rx="-202.7" ry="-202.7"/>
      <rect class="st0" x="1063.7" y="-822.5" width="95.3" height="95.3" rx="-315.9" ry="-315.9"/>
      <rect class="st0" x="1063.7" y="-709.3" width="95.3" height="95.3" rx="-259.3" ry="-259.3"/>
      <rect class="st0" x="1063.7" y="-482.8" width="95.3" height="95.3" rx="-146.1" ry="-146.1"/>
      <rect class="st0" x="1063.7" y="-596" width="95.3" height="95.3" rx="-202.7" ry="-202.7"/>
      <rect class="st0" x="1177.5" y="-822.5" width="95.3" height="95.3" rx="-315.9" ry="-315.9"/>
      <rect class="st0" x="1177.5" y="-709.3" width="95.3" height="95.3" rx="-259.3" ry="-259.3"/>
      <rect class="st0" x="1177.5" y="-482.8" width="95.3" height="95.3" rx="-146.1" ry="-146.1"/>
      <rect class="st0" x="1177.5" y="-596" width="95.3" height="95.3" rx="-202.7" ry="-202.7"/>
      <rect class="st2" x="1291.3" y="-823.5" width="95.3" height="95.3" rx="-316.4" ry="-316.4"/>
      <rect class="st2" x="1291.3" y="-710.3" width="95.3" height="95.3" rx="-259.8" ry="-259.8"/>
      <rect class="st2" x="1291.3" y="-483.8" width="95.3" height="95.3" rx="-146.6" ry="-146.6"/>
      <rect class="st2" x="1291.3" y="-597" width="95.3" height="95.3" rx="-203.2" ry="-203.2"/>
      <rect class="st2" x="1405" y="-823.5" width="95.3" height="95.3" rx="-316.4" ry="-316.4"/>
      <rect class="st2" x="1405" y="-710.3" width="95.3" height="95.3" rx="-259.8" ry="-259.8"/>
      <rect class="st2" x="1405" y="-483.8" width="95.3" height="95.3" rx="-146.6" ry="-146.6"/>
      <rect class="st2" x="1405" y="-597" width="95.3" height="95.3" rx="-203.2" ry="-203.2"/>
      <rect class="st3" x="1518.8" y="-823.5" width="95.3" height="95.3" rx="-316.4" ry="-316.4"/>
      <rect class="st3" x="1518.8" y="-710.3" width="95.3" height="95.3" rx="-259.8" ry="-259.8"/>
      <rect class="st3" x="1518.8" y="-483.8" width="95.3" height="95.3" rx="-146.6" ry="-146.6"/>
      <rect class="st3" x="1518.8" y="-597" width="95.3" height="95.3" rx="-203.2" ry="-203.2"/>
      <rect class="st3" x="1632.6" y="-823.5" width="95.3" height="95.3" rx="-316.4" ry="-316.4"/>
      <rect class="st3" x="1632.6" y="-710.3" width="95.3" height="95.3" rx="-259.8" ry="-259.8"/>
      <rect class="st3" x="1632.6" y="-483.8" width="95.3" height="95.3" rx="-146.6" ry="-146.6"/>
      <rect class="st3" x="1632.6" y="-597" width="95.3" height="95.3" rx="-203.2" ry="-203.2"/>
      <rect class="st4" x="1746.4" y="-823.5" width="95.3" height="95.3" rx="-316.4" ry="-316.4"/>
      <rect class="st4" x="1746.4" y="-710.3" width="95.3" height="95.3" rx="-259.8" ry="-259.8"/>
      <rect class="st4" x="1746.4" y="-483.8" width="95.3" height="95.3" rx="-146.6" ry="-146.6"/>
      <rect class="st4" x="1746.4" y="-597" width="95.3" height="95.3" rx="-203.2" ry="-203.2"/>
      <rect class="st4" x="1860.2" y="-823.5" width="95.3" height="95.3" rx="-316.4" ry="-316.4"/>
      <rect class="st4" x="1860.2" y="-710.3" width="95.3" height="95.3" rx="-259.8" ry="-259.8"/>
      <rect class="st4" x="1860.2" y="-483.8" width="95.3" height="95.3" rx="-146.6" ry="-146.6"/>
      <rect class="st4" x="1860.2" y="-597" width="95.3" height="95.3" rx="-203.2" ry="-203.2"/>
      <rect class="st1" x="1974" y="-823.5" width="95.3" height="95.3" rx="-316.4" ry="-316.4"/>
      <rect class="st1" x="1974" y="-710.3" width="95.3" height="95.3" rx="-259.8" ry="-259.8"/>
      <rect class="st1" x="1974" y="-483.8" width="95.3" height="95.3" rx="-146.6" ry="-146.6"/>
      <rect class="st1" x="1974" y="-597" width="95.3" height="95.3" rx="-203.2" ry="-203.2"/>
      <rect class="st1" x="2087.8" y="-823.5" width="95.3" height="95.3" rx="-316.4" ry="-316.4"/>
      <rect class="st1" x="2087.8" y="-710.3" width="95.3" height="95.3" rx="-259.8" ry="-259.8"/>
      <rect class="st1" x="2087.8" y="-483.8" width="95.3" height="95.3" rx="-146.6" ry="-146.6"/>
      <rect class="st1" x="2087.8" y="-597" width="95.3" height="95.3" rx="-203.2" ry="-203.2"/>
      <rect class="st5" x="2201.6" y="-823.5" width="95.3" height="95.3" rx="-316.4" ry="-316.4"/>
      <rect class="st5" x="2201.6" y="-710.3" width="95.3" height="95.3" rx="-259.8" ry="-259.8"/>
      <rect class="st5" x="2201.6" y="-483.8" width="95.3" height="95.3" rx="-146.6" ry="-146.6"/>
      <rect class="st5" x="2201.6" y="-597" width="95.3" height="95.3" rx="-203.2" ry="-203.2"/>
      <rect class="st5" x="2315.4" y="-823.5" width="95.3" height="95.3" rx="-316.4" ry="-316.4"/>
      <rect class="st5" x="2315.4" y="-710.3" width="95.3" height="95.3" rx="-259.8" ry="-259.8"/>
      <rect class="st5" x="2315.4" y="-483.8" width="95.3" height="95.3" rx="-146.6" ry="-146.6"/>
      <rect class="st5" x="2315.4" y="-597" width="95.3" height="95.3" rx="-203.2" ry="-203.2"/>
    </g>
  </g>
  <g>
    <rect class="st6" x="894.9" y="0" width="3431.3" height="800" rx="50" ry="50"/>
    <g>
      <path d="M2641.5,287.4c-5.5,0-10-4.5-10-10v-85.9c0-5.5-4.5-10-10-10h-72.2c-5.5,0-10,4.5-10,10v311c0,3.2,2.6,5.8,5.8,5.8h35.9c5.5,0,10,4.5,10,10v88.3c0,5.5,4.5,10,10,10h72.2c5.5,0,10-4.5,10-10v-313.4c0-3.2-2.6-5.8-5.8-5.8h-35.9Z"/>
      <path d="M2657.3,181.4c-5.5,0-10,4.5-10,10v74.1c0,3.2,2.6,5.8,5.8,5.8h37.3c5.5,0,10,4.5,10,10v325.2c0,5.5,4.5,10,10,10h72.2c5.5,0,10-4.5,10-10V191.4c0-5.5-4.5-10-10-10h-125.3Z"/>
      <path d="M2534,524.3c-5.5,0-10-4.5-10-10V191.4c0-5.5-4.5-10-10-10h-72.2c-5.5,0-10,4.5-10,10v415.1c0,5.5,4.5,10,10,10h121.7c5.5,0,10-4.5,10-10v-76.3c0-3.2-2.6-5.8-5.8-5.8h-33.7Z"/>
    </g>
    <g>
      <rect class="st12" x="2810.4" y="181.4" width="95.3" height="95.3" rx="7.7" ry="7.7"/>
      <rect class="st12" x="2810.4" y="294.7" width="95.3" height="95.3" rx="7.7" ry="7.7"/>
      <rect class="st12" x="2810.4" y="521.1" width="95.3" height="95.3" rx="7.7" ry="7.7"/>
      <rect class="st12" x="2810.4" y="407.9" width="95.3" height="95.3" rx="7.7" ry="7.7"/>
      <rect class="st12" x="2924.2" y="181.4" width="95.3" height="95.3" rx="7.7" ry="7.7"/>
      <rect class="st12" x="2924.2" y="294.7" width="95.3" height="95.3" rx="7.7" ry="7.7"/>
      <rect class="st12" x="2924.2" y="521.1" width="95.3" height="95.3" rx="7.7" ry="7.7"/>
      <rect class="st12" x="2924.2" y="407.9" width="95.3" height="95.3" rx="7.7" ry="7.7"/>
      <rect class="st8" x="3038" y="181.4" width="95.3" height="95.3" rx="7.7" ry="7.7"/>
      <rect class="st8" x="3038" y="294.7" width="95.3" height="95.3" rx="7.7" ry="7.7"/>
      <rect class="st8" x="3038" y="521.1" width="95.3" height="95.3" rx="7.7" ry="7.7"/>
      <rect class="st8" x="3038" y="407.9" width="95.3" height="95.3" rx="7.7" ry="7.7"/>
      <rect class="st8" x="3151.8" y="181.4" width="95.3" height="95.3" rx="7.7" ry="7.7"/>
      <rect class="st8" x="3151.8" y="294.7" width="95.3" height="95.3" rx="7.7" ry="7.7"/>
      <rect class="st8" x="3151.8" y="521.1" width="95.3" height="95.3" rx="7.7" ry="7.7"/>
      <rect class="st8" x="3151.8" y="407.9" width="95.3" height="95.3" rx="7.7" ry="7.7"/>
      <rect class="st11" x="3265.6" y="181.4" width="95.3" height="95.3" rx="7.7" ry="7.7"/>
      <rect class="st11" x="3265.6" y="294.7" width="95.3" height="95.3" rx="7.7" ry="7.7"/>
      <rect class="st11" x="3265.6" y="521.1" width="95.3" height="95.3" rx="7.7" ry="7.7"/>
      <rect class="st11" x="3265.6" y="407.9" width="95.3" height="95.3" rx="7.7" ry="7.7"/>
      <rect class="st11" x="3379.4" y="181.4" width="95.3" height="95.3" rx="7.7" ry="7.7"/>
      <rect class="st11" x="3379.4" y="294.7" width="95.3" height="95.3" rx="7.7" ry="7.7"/>
      <rect class="st11" x="3379.4" y="521.1" width="95.3" height="95.3" rx="7.7" ry="7.7"/>
      <rect class="st11" x="3379.4" y="407.9" width="95.3" height="95.3" rx="7.7" ry="7.7"/>
      <rect class="st10" x="3493.2" y="181.4" width="95.3" height="95.3" rx="7.7" ry="7.7"/>
      <rect class="st10" x="3493.2" y="294.7" width="95.3" height="95.3" rx="7.7" ry="7.7"/>
      <rect class="st10" x="3493.2" y="521.1" width="95.3" height="95.3" rx="7.7" ry="7.7"/>
      <rect class="st10" x="3493.2" y="407.9" width="95.3" height="95.3" rx="7.7" ry="7.7"/>
      <rect class="st10" x="3607" y="181.4" width="95.3" height="95.3" rx="7.7" ry="7.7"/>
      <rect class="st10" x="3607" y="294.7" width="95.3" height="95.3" rx="7.7" ry="7.7"/>
      <rect class="st10" x="3607" y="521.1" width="95.3" height="95.3" rx="7.7" ry="7.7"/>
      <rect class="st10" x="3607" y="407.9" width="95.3" height="95.3" rx="7.7" ry="7.7"/>
      <rect class="st9" x="3720.7" y="181.4" width="95.3" height="95.3" rx="7.7" ry="7.7"/>
      <rect class="st9" x="3720.7" y="294.7" width="95.3" height="95.3" rx="7.7" ry="7.7"/>
      <rect class="st9" x="3720.7" y="521.1" width="95.3" height="95.3" rx="7.7" ry="7.7"/>
      <rect class="st9" x="3720.7" y="407.9" width="95.3" height="95.3" rx="7.7" ry="7.7"/>
      <rect class="st9" x="3834.5" y="181.4" width="95.3" height="95.3" rx="7.7" ry="7.7"/>
      <rect class="st9" x="3834.5" y="294.7" width="95.3" height="95.3" rx="7.7" ry="7.7"/>
      <rect class="st9" x="3834.5" y="521.1" width="95.3" height="95.3" rx="7.7" ry="7.7"/>
      <rect class="st9" x="3834.5" y="407.9" width="95.3" height="95.3" rx="7.7" ry="7.7"/>
      <rect class="st7" x="3948.3" y="182.4" width="95.3" height="95.3" rx="7.7" ry="7.7"/>
      <rect class="st7" x="3948.3" y="295.7" width="95.3" height="95.3" rx="7.7" ry="7.7"/>
      <rect class="st7" x="3948.3" y="522.1" width="95.3" height="95.3" rx="7.7" ry="7.7"/>
      <rect class="st7" x="3948.3" y="408.9" width="95.3" height="95.3" rx="7.7" ry="7.7"/>
      <rect class="st7" x="4062.1" y="182.4" width="95.3" height="95.3" rx="7.7" ry="7.7"/>
      <rect class="st7" x="4062.1" y="295.7" width="95.3" height="95.3" rx="7.7" ry="7.7"/>
      <rect class="st7" x="4062.1" y="522.1" width="95.3" height="95.3" rx="7.7" ry="7.7"/>
      <rect class="st7" x="4062.1" y="408.9" width="95.3" height="95.3" rx="7.7" ry="7.7"/>
      <rect class="st7" x="1063.7" y="182.4" width="95.3" height="95.3" rx="7.7" ry="7.7"/>
      <rect class="st7" x="1063.7" y="295.7" width="95.3" height="95.3" rx="7.7" ry="7.7"/>
      <rect class="st7" x="1063.7" y="522.1" width="95.3" height="95.3" rx="7.7" ry="7.7"/>
      <rect class="st7" x="1063.7" y="408.9" width="95.3" height="95.3" rx="7.7" ry="7.7"/>
      <rect class="st7" x="1177.5" y="182.4" width="95.3" height="95.3" rx="7.7" ry="7.7"/>
      <rect class="st7" x="1177.5" y="295.7" width="95.3" height="95.3" rx="7.7" ry="7.7"/>
      <rect class="st7" x="1177.5" y="522.1" width="95.3" height="95.3" rx="7.7" ry="7.7"/>
      <rect class="st7" x="1177.5" y="408.9" width="95.3" height="95.3" rx="7.7" ry="7.7"/>
      <rect class="st9" x="1291.3" y="181.4" width="95.3" height="95.3" rx="7.7" ry="7.7"/>
      <rect class="st9" x="1291.3" y="294.7" width="95.3" height="95.3" rx="7.7" ry="7.7"/>
      <rect class="st9" x="1291.3" y="521.1" width="95.3" height="95.3" rx="7.7" ry="7.7"/>
      <rect class="st9" x="1291.3" y="407.9" width="95.3" height="95.3" rx="7.7" ry="7.7"/>
      <rect class="st9" x="1405" y="181.4" width="95.3" height="95.3" rx="7.7" ry="7.7"/>
      <rect class="st9" x="1405" y="294.7" width="95.3" height="95.3" rx="7.7" ry="7.7"/>
      <rect class="st9" x="1405" y="521.1" width="95.3" height="95.3" rx="7.7" ry="7.7"/>
      <rect class="st9" x="1405" y="407.9" width="95.3" height="95.3" rx="7.7" ry="7.7"/>
      <rect class="st10" x="1518.8" y="181.4" width="95.3" height="95.3" rx="7.7" ry="7.7"/>
      <rect class="st10" x="1518.8" y="294.7" width="95.3" height="95.3" rx="7.7" ry="7.7"/>
      <rect class="st10" x="1518.8" y="521.1" width="95.3" height="95.3" rx="7.7" ry="7.7"/>
      <rect class="st10" x="1518.8" y="407.9" width="95.3" height="95.3" rx="7.7" ry="7.7"/>
      <rect class="st10" x="1632.6" y="181.4" width="95.3" height="95.3" rx="7.7" ry="7.7"/>
      <rect class="st10" x="1632.6" y="294.7" width="95.3" height="95.3" rx="7.7" ry="7.7"/>
      <rect class="st10" x="1632.6" y="521.1" width="95.3" height="95.3" rx="7.7" ry="7.7"/>
      <rect class="st10" x="1632.6" y="407.9" width="95.3" height="95.3" rx="7.7" ry="7.7"/>
      <rect class="st11" x="1746.4" y="181.4" width="95.3" height="95.3" rx="7.7" ry="7.7"/>
      <rect class="st11" x="1746.4" y="294.7" width="95.3" height="95.3" rx="7.7" ry="7.7"/>
      <rect class="st11" x="1746.4" y="521.1" width="95.3" height="95.3" rx="7.7" ry="7.7"/>
      <rect class="st11" x="1746.4" y="407.9" width="95.3" height="95.3" rx="7.7" ry="7.7"/>
      <rect class="st11" x="1860.2" y="181.4" width="95.3" height="95.3" rx="7.7" ry="7.7"/>
      <rect class="st11" x="1860.2" y="294.7" width="95.3" height="95.3" rx="7.7" ry="7.7"/>
      <rect class="st11" x="1860.2" y="521.1" width="95.3" height="95.3" rx="7.7" ry="7.7"/>
      <rect class="st11" x="1860.2" y="407.9" width="95.3" height="95.3" rx="7.7" ry="7.7"/>
      <rect class="st8" x="1974" y="181.4" width="95.3" height="95.3" rx="7.7" ry="7.7"/>
      <rect class="st8" x="1974" y="294.7" width="95.3" height="95.3" rx="7.7" ry="7.7"/>
      <rect class="st8" x="1974" y="521.1" width="95.3" height="95.3" rx="7.7" ry="7.7"/>
      <rect class="st8" x="1974" y="407.9" width="95.3" height="95.3" rx="7.7" ry="7.7"/>
      <rect class="st8" x="2087.8" y="181.4" width="95.3" height="95.3" rx="7.7" ry="7.7"/>
      <rect class="st8" x="2087.8" y="294.7" width="95.3" height="95.3" rx="7.7" ry="7.7"/>
      <rect class="st8" x="2087.8" y="521.1" width="95.3" height="95.3" rx="7.7" ry="7.7"/>
      <rect class="st8" x="2087.8" y="407.9" width="95.3" height="95.3" rx="7.7" ry="7.7"/>
      <rect class="st12" x="2201.6" y="181.4" width="95.3" height="95.3" rx="7.7" ry="7.7"/>
      <rect class="st12" x="2201.6" y="294.7" width="95.3" height="95.3" rx="7.7" ry="7.7"/>
      <rect class="st12" x="2201.6" y="521.1" width="95.3" height="95.3" rx="7.7" ry="7.7"/>
      <rect class="st12" x="2201.6" y="407.9" width="95.3" height="95.3" rx="7.7" ry="7.7"/>
      <rect class="st12" x="2315.4" y="181.4" width="95.3" height="95.3" rx="7.7" ry="7.7"/>
      <rect class="st12" x="2315.4" y="294.7" width="95.3" height="95.3" rx="7.7" ry="7.7"/>
      <rect class="st12" x="2315.4" y="521.1" width="95.3" height="95.3" rx="7.7" ry="7.7"/>
      <rect class="st12" x="2315.4" y="407.9" width="95.3" height="95.3" rx="7.7" ry="7.7"/>
    </g>
  </g>
</svg>