<?xml version="1.0" encoding="UTF-8"?>
<svg id="Layer_2" xmlns="http://www.w3.org/2000/svg" version="1.1" viewBox="0 0 360.8 435.2">
  <!-- Generator: Adobe Illustrator 29.6.1, SVG Export Plug-In . SVG Version: 2.1.1 Build 9)  -->
  <defs>
    <style>
      .st0 {
        fill: #fff;
      }
    </style>
  </defs>
  <path class="st0" d="M209.7,106c-5.5,0-10-4.5-10-10V10.1c0-5.5-4.5-10-10-10h-72.2c-5.5,0-10,4.5-10,10v311c0,3.2,2.6,5.8,5.8,5.8h35.9c5.5,0,10,4.5,10,10v88.3c0,5.5,4.5,10,10,10h72.2c5.5,0,10-4.5,10-10V111.8c0-3.2-2.6-5.8-5.8-5.8h-35.9Z"/>
  <path class="st0" d="M225.5,0c-5.5,0-10,4.5-10,10v74.1c0,3.2,2.6,5.8,5.8,5.8h37.3c5.5,0,10,4.5,10,10v325.2c0,5.5,4.5,10,10,10h72.2c5.5,0,10-4.5,10-10V10c0-5.5-4.5-10-10-10h-125.3Z"/>
  <path class="st0" d="M102.2,343c-5.5,0-10-4.5-10-10V10c0-5.5-4.5-10-10-10H10C4.5,0,0,4.5,0,10v415.1c0,5.5,4.5,10,10,10h121.7c5.5,0,10-4.5,10-10v-76.3c0-3.2-2.6-5.8-5.8-5.8h-33.7Z"/>
</svg>