<?xml version="1.0" encoding="UTF-8"?>
<svg id="Layer_2" xmlns="http://www.w3.org/2000/svg" version="1.1" viewBox="0 0 3431.3 800">
  <!-- Generator: Adobe Illustrator 29.6.1, SVG Export Plug-In . SVG Version: 2.1.1 Build 9)  -->
  <defs>
    <style>
      .st0, .st1, .st2, .st3, .st4 {
        fill: #fff;
      }

      .st1 {
        fill-opacity: 0;
      }

      .st2 {
        opacity: .1;
      }

      .st2, .st3, .st4 {
        isolation: isolate;
      }

      .st3 {
        opacity: .3;
      }

      .st4 {
        opacity: .2;
      }
    </style>
  </defs>
  <rect width="3431.3" height="800" rx="50" ry="50"/>
  <g>
    <path class="st0" d="M1746.6,287.4c-5.5,0-10-4.5-10-10v-85.9c0-5.5-4.5-10-10-10h-72.2c-5.5,0-10,4.5-10,10v311c0,3.2,2.6,5.8,5.8,5.8h35.9c5.5,0,10,4.5,10,10v88.3c0,5.5,4.5,10,10,10h72.2c5.5,0,10-4.5,10-10v-313.4c0-3.2-2.6-5.8-5.8-5.8h-35.9Z"/>
    <path class="st0" d="M1762.4,181.5c-5.5,0-10,4.5-10,10v74.1c0,3.2,2.6,5.8,5.8,5.8h37.3c5.5,0,10,4.5,10,10v325.2c0,5.5,4.5,10,10,10h72.2c5.5,0,10-4.5,10-10V191.5c0-5.5-4.5-10-10-10h-125.3Z"/>
    <path class="st0" d="M1639.1,524.4c-5.5,0-10-4.5-10-10V191.4c0-5.5-4.5-10-10-10h-72.2c-5.5,0-10,4.5-10,10v415.1c0,5.5,4.5,10,10,10h121.7c5.5,0,10-4.5,10-10v-76.3c0-3.2-2.6-5.8-5.8-5.8h-33.7Z"/>
  </g>
  <g>
    <rect class="st3" x="1915.5" y="181.5" width="95.3" height="95.3"/>
    <rect class="st3" x="1915.5" y="294.7" width="95.3" height="95.3"/>
    <rect class="st3" x="1915.5" y="521.2" width="95.3" height="95.3"/>
    <rect class="st3" x="1915.5" y="408" width="95.3" height="95.3"/>
    <rect class="st3" x="2029.3" y="181.5" width="95.3" height="95.3"/>
    <rect class="st3" x="2029.3" y="294.7" width="95.3" height="95.3"/>
    <rect class="st3" x="2029.3" y="521.2" width="95.3" height="95.3"/>
    <rect class="st3" x="2029.3" y="408" width="95.3" height="95.3"/>
    <rect class="st4" x="2143.1" y="181.5" width="95.3" height="95.3"/>
    <rect class="st4" x="2143.1" y="294.7" width="95.3" height="95.3"/>
    <rect class="st4" x="2143.1" y="521.2" width="95.3" height="95.3"/>
    <rect class="st4" x="2143.1" y="408" width="95.3" height="95.3"/>
    <rect class="st4" x="2256.9" y="181.5" width="95.3" height="95.3"/>
    <rect class="st4" x="2256.9" y="294.7" width="95.3" height="95.3"/>
    <rect class="st4" x="2256.9" y="521.2" width="95.3" height="95.3"/>
    <rect class="st4" x="2256.9" y="408" width="95.3" height="95.3"/>
    <rect class="st4" x="2370.7" y="181.5" width="95.3" height="95.3"/>
    <rect class="st4" x="2370.7" y="294.7" width="95.3" height="95.3"/>
    <rect class="st4" x="2370.7" y="521.2" width="95.3" height="95.3"/>
    <rect class="st4" x="2370.7" y="408" width="95.3" height="95.3"/>
    <rect class="st4" x="2484.5" y="181.5" width="95.3" height="95.3"/>
    <rect class="st4" x="2484.5" y="294.7" width="95.3" height="95.3"/>
    <rect class="st4" x="2484.5" y="521.2" width="95.3" height="95.3"/>
    <rect class="st4" x="2484.5" y="408" width="95.3" height="95.3"/>
    <rect class="st2" x="2598.3" y="181.5" width="95.3" height="95.3"/>
    <rect class="st2" x="2598.3" y="294.7" width="95.3" height="95.3"/>
    <rect class="st2" x="2598.3" y="521.2" width="95.3" height="95.3"/>
    <rect class="st2" x="2598.3" y="408" width="95.3" height="95.3"/>
    <rect class="st2" x="2712.1" y="181.5" width="95.3" height="95.3"/>
    <rect class="st2" x="2712.1" y="294.7" width="95.3" height="95.3"/>
    <rect class="st2" x="2712.1" y="521.2" width="95.3" height="95.3"/>
    <rect class="st2" x="2712.1" y="408" width="95.3" height="95.3"/>
    <rect class="st1" x="2825.8" y="181.5" width="95.3" height="95.3"/>
    <rect class="st1" x="2825.8" y="294.7" width="95.3" height="95.3"/>
    <rect class="st1" x="2825.8" y="521.2" width="95.3" height="95.3"/>
    <rect class="st1" x="2825.8" y="408" width="95.3" height="95.3"/>
    <rect class="st1" x="2939.6" y="181.5" width="95.3" height="95.3"/>
    <rect class="st1" x="2939.6" y="294.7" width="95.3" height="95.3"/>
    <rect class="st1" x="2939.6" y="521.2" width="95.3" height="95.3"/>
    <rect class="st1" x="2939.6" y="408" width="95.3" height="95.3"/>
    <rect class="st1" x="3053.4" y="182.5" width="95.3" height="95.3"/>
    <rect class="st1" x="3053.4" y="295.7" width="95.3" height="95.3"/>
    <rect class="st1" x="3053.4" y="522.2" width="95.3" height="95.3"/>
    <rect class="st1" x="3053.4" y="409" width="95.3" height="95.3"/>
    <rect class="st1" x="3167.2" y="182.5" width="95.3" height="95.3"/>
    <rect class="st1" x="3167.2" y="295.7" width="95.3" height="95.3"/>
    <rect class="st1" x="3167.2" y="522.2" width="95.3" height="95.3"/>
    <rect class="st1" x="3167.2" y="409" width="95.3" height="95.3"/>
    <rect class="st1" x="168.8" y="182.5" width="95.3" height="95.3"/>
    <rect class="st1" x="168.8" y="295.7" width="95.3" height="95.3"/>
    <rect class="st1" x="168.8" y="522.2" width="95.3" height="95.3"/>
    <rect class="st1" x="168.8" y="409" width="95.3" height="95.3"/>
    <rect class="st1" x="282.6" y="182.5" width="95.3" height="95.3"/>
    <rect class="st1" x="282.6" y="295.7" width="95.3" height="95.3"/>
    <rect class="st1" x="282.6" y="522.2" width="95.3" height="95.3"/>
    <rect class="st1" x="282.6" y="409" width="95.3" height="95.3"/>
    <rect class="st1" x="396.4" y="181.5" width="95.3" height="95.3"/>
    <rect class="st1" x="396.4" y="294.7" width="95.3" height="95.3"/>
    <rect class="st1" x="396.4" y="521.2" width="95.3" height="95.3"/>
    <rect class="st1" x="396.4" y="408" width="95.3" height="95.3"/>
    <rect class="st1" x="510.1" y="181.5" width="95.3" height="95.3"/>
    <rect class="st1" x="510.1" y="294.7" width="95.3" height="95.3"/>
    <rect class="st1" x="510.1" y="521.2" width="95.3" height="95.3"/>
    <rect class="st1" x="510.1" y="408" width="95.3" height="95.3"/>
    <rect class="st2" x="623.9" y="181.5" width="95.3" height="95.3"/>
    <rect class="st2" x="623.9" y="294.7" width="95.3" height="95.3"/>
    <rect class="st2" x="623.9" y="521.2" width="95.3" height="95.3"/>
    <rect class="st2" x="623.9" y="408" width="95.3" height="95.3"/>
    <rect class="st2" x="737.7" y="181.5" width="95.3" height="95.3"/>
    <rect class="st2" x="737.7" y="294.7" width="95.3" height="95.3"/>
    <rect class="st2" x="737.7" y="521.2" width="95.3" height="95.3"/>
    <rect class="st2" x="737.7" y="408" width="95.3" height="95.3"/>
    <rect class="st4" x="851.5" y="181.5" width="95.3" height="95.3"/>
    <rect class="st4" x="851.5" y="294.7" width="95.3" height="95.3"/>
    <rect class="st4" x="851.5" y="521.2" width="95.3" height="95.3"/>
    <rect class="st4" x="851.5" y="408" width="95.3" height="95.3"/>
    <rect class="st4" x="965.3" y="181.5" width="95.3" height="95.3"/>
    <rect class="st4" x="965.3" y="294.7" width="95.3" height="95.3"/>
    <rect class="st4" x="965.3" y="521.2" width="95.3" height="95.3"/>
    <rect class="st4" x="965.3" y="408" width="95.3" height="95.3"/>
    <rect class="st4" x="1079.1" y="181.5" width="95.3" height="95.3"/>
    <rect class="st4" x="1079.1" y="294.7" width="95.3" height="95.3"/>
    <rect class="st4" x="1079.1" y="521.2" width="95.3" height="95.3"/>
    <rect class="st4" x="1079.1" y="408" width="95.3" height="95.3"/>
    <rect class="st4" x="1192.9" y="181.5" width="95.3" height="95.3"/>
    <rect class="st4" x="1192.9" y="294.7" width="95.3" height="95.3"/>
    <rect class="st4" x="1192.9" y="521.2" width="95.3" height="95.3"/>
    <rect class="st4" x="1192.9" y="408" width="95.3" height="95.3"/>
    <rect class="st3" x="1306.7" y="181.5" width="95.3" height="95.3"/>
    <rect class="st3" x="1306.7" y="294.7" width="95.3" height="95.3"/>
    <rect class="st3" x="1306.7" y="521.2" width="95.3" height="95.3"/>
    <rect class="st3" x="1306.7" y="408" width="95.3" height="95.3"/>
    <rect class="st3" x="1420.5" y="181.5" width="95.3" height="95.3"/>
    <rect class="st3" x="1420.5" y="294.7" width="95.3" height="95.3"/>
    <rect class="st3" x="1420.5" y="521.2" width="95.3" height="95.3"/>
    <rect class="st3" x="1420.5" y="408" width="95.3" height="95.3"/>
  </g>
</svg>